<?xml version="1.0" encoding="UTF-8"?>
<svg id="Layer_1" data-name="Layer 1" xmlns="http://www.w3.org/2000/svg" viewBox="0 0 1036 1036">
  <defs>
    <style>
      .cls-1 {
        fill: #fff;
      }

      .cls-1, .cls-2 {
        stroke-width: 0px;
      }

      .cls-2 {
        fill: #ec288e;
      }
    </style>
  </defs>
  <circle class="cls-2" cx="518" cy="518" r="518"/>
  <g>
    <g>
      <path class="cls-1" d="m267.78,599.35v126.64l-120.78,42.01v-488.36h106.59l8.94,39.38s21-49.89,115.53-44.64c94.52,5.25,107.65,110.28,107.65,110.28,0,0,49.89,236.3-86.64,265.19,0,0-86.64,22.4-131.28-50.5Z"/>
      <path class="cls-2" d="m265.15,418.8v83.8s34.13,60.61,86.64,26.48c0,0,26.26-15.75,15.75-94.52-10.5-78.77-78.77-42.01-81.39-39.38,0,0-15.75,15.75-21,23.63Z"/>
    </g>
    <polygon class="cls-1" points="493.58 274.39 621.51 274.39 687.87 515.94 761.28 274.39 888.31 274.39 711.5 765.37 575.92 765.37 622.23 668.23 493.58 274.39"/>
  </g>
</svg>